<?xml version="1.0" encoding="UTF-8"?><svg id="Layer_1" xmlns="http://www.w3.org/2000/svg" viewBox="0 0 696.38 98.48"><defs><style>.cls-1{fill:#231815;}</style></defs><path class="cls-1" d="m24.47,67.95v28.27H0V19.36C0,5.7,4.28.59,18.53.59h20.67c20.55,0,35.64,10.22,35.64,32.67v2.02c0,22.45-15.09,32.67-35.64,32.67h-14.73Zm0-20.67h13.54c7.96,0,12.47-5.94,12.47-12.59v-.83c0-6.65-4.51-12.59-12.47-12.59h-10.1c-2.73,0-3.44.59-3.44,3.44v22.57Z"/><path class="cls-1" d="m83.39,36.23C83.39,8.91,105.37,0,123.19,0s39.79,8.91,39.79,36.23v26.01c0,27.32-22.33,36.23-39.79,36.23s-39.79-8.91-39.79-36.23v-26.01Zm55.36-.71c0-10.45-8.08-15.21-15.56-15.21s-15.56,4.75-15.56,15.21v27.44c0,9.5,8.79,15.2,15.56,15.2s15.56-5.7,15.56-15.2v-27.44Z"/><path class="cls-1" d="m236.04,58.33l22.57,37.89h-26.85l-17.82-31.95h-15.21v31.95h-24.35V19.36c0-13.66,4.28-18.77,18.53-18.77h21.86c20.55,0,35.64,9.74,35.64,31v1.43c0,11.29-5.94,19.96-14.37,25.3Zm-37.3-14.14h15.44c7.96,0,12.12-5.11,12.12-11.17v-.83c0-6.06-4.16-11.17-12.12-11.17h-12c-2.73,0-3.44.59-3.44,3.44v19.72Z"/><path class="cls-1" d="m284.63,96.22V21.62h-18.17c-6.89,0-9.62-5.7-9.62-10.57s2.61-10.22,9.62-10.22h61.06c7.01,0,9.62,5.35,9.62,10.22s-2.73,10.57-9.62,10.57h-18.17v74.6h-24.71Z"/><path class="cls-1" d="m343.56,96.22V19.36c0-13.66,4.28-18.77,18.53-18.77h39.56c6.89,0,9.62,5.7,9.62,10.57s-2.61,10.22-9.62,10.22h-30.17c-2.73,0-3.45.59-3.45,3.45v14.97h30.53c6.89,0,9.62,5.7,9.62,10.57s-2.61,10.22-9.62,10.22h-30.53v35.64h-24.47Z"/><path class="cls-1" d="m418.64,36.23c0-27.32,21.98-36.23,39.79-36.23s39.79,8.91,39.79,36.23v26.01c0,27.32-22.33,36.23-39.79,36.23s-39.79-8.91-39.79-36.23v-26.01Zm55.36-.71c0-10.45-8.08-15.21-15.56-15.21s-15.56,4.75-15.56,15.21v27.44c0,9.5,8.79,15.2,15.56,15.2s15.56-5.7,15.56-15.2v-27.44Z"/><path class="cls-1" d="m528.17,96.22c-14.25,0-18.53-5.11-18.53-18.77V12.24c0-7.96,5.94-12.12,12.35-12.12s12.35,4.16,12.35,12.12v59.75c0,2.85.71,3.45,3.44,3.45h26.37c7.01,0,9.62,5.35,9.62,10.22s-2.73,10.57-9.62,10.57h-35.99Z"/><path class="cls-1" d="m581.03,12c0-8.2,5.7-11.88,12.35-11.88s12.35,3.68,12.35,11.88v84.22h-24.71V12Z"/><path class="cls-1" d="m616.79,36.23c0-27.32,21.98-36.23,39.79-36.23s39.79,8.91,39.79,36.23v26.01c0,27.32-22.33,36.23-39.79,36.23s-39.79-8.91-39.79-36.23v-26.01Zm55.36-.71c0-10.45-8.08-15.21-15.56-15.21s-15.56,4.75-15.56,15.21v27.44c0,9.5,8.79,15.2,15.56,15.2s15.56-5.7,15.56-15.2v-27.44Z"/></svg>